<?xml version="1.0" standalone="yes"?>
<!-- SVG graphic -->
<svg xmlns='http://www.w3.org/2000/svg' xmlns:xlink='http://www.w3.org/1999/xlink'
width="70px" height="70px" preserveAspectRatio="xMinYMin meet" viewBox="0 0 70 70" version="1.1">
<rect x="5" y="0" width="2.5" height="2.5" fill="rgb(207,0,47)" opacity="1"/>
<rect x="10" y="0" width="2.5" height="2.5" fill="rgb(123,0,131)" opacity="1"/>
<rect x="15" y="0" width="2.5" height="2.5" fill="rgb(78,0,176)" opacity="1"/>
<rect x="20" y="0" width="2.5" height="2.5" fill="rgb(58,0,196)" opacity="1"/>
<rect x="25" y="0" width="2.5" height="2.5" fill="rgb(32,0,222)" opacity="1"/>
<rect x="30" y="0" width="2.5" height="2.5" fill="rgb(19,0,235)" opacity="1"/>
<rect x="35" y="0" width="2.5" height="2.5" fill="rgb(25,0,229)" opacity="1"/>
<rect x="40" y="0" width="2.5" height="2.5" fill="rgb(21,0,233)" opacity="1"/>
<rect x="10" y="5" width="2.5" height="2.5" fill="rgb(255,0,0)" opacity="1"/>
<rect x="15" y="5" width="2.5" height="2.5" fill="rgb(174,0,80)" opacity="1"/>
<rect x="20" y="5" width="2.5" height="2.5" fill="rgb(115,0,139)" opacity="1"/>
<rect x="25" y="5" width="2.5" height="2.5" fill="rgb(55,0,199)" opacity="1"/>
<rect x="30" y="5" width="2.5" height="2.5" fill="rgb(53,0,201)" opacity="1"/>
<rect x="35" y="5" width="2.5" height="2.5" fill="rgb(46,0,208)" opacity="1"/>
<rect x="40" y="5" width="2.5" height="2.5" fill="rgb(28,0,226)" opacity="1"/>
<rect x="15" y="10" width="2.5" height="2.5" fill="rgb(252,0,2)" opacity="1"/>
<rect x="20" y="10" width="2.5" height="2.5" fill="rgb(163,0,91)" opacity="1"/>
<rect x="25" y="10" width="2.5" height="2.5" fill="rgb(94,0,160)" opacity="1"/>
<rect x="30" y="10" width="2.5" height="2.5" fill="rgb(75,0,179)" opacity="1"/>
<rect x="35" y="10" width="2.5" height="2.5" fill="rgb(58,0,196)" opacity="1"/>
<rect x="40" y="10" width="2.5" height="2.5" fill="rgb(34,0,220)" opacity="1"/>
<rect x="45" y="10" width="2.5" height="2.5" fill="rgb(5,0,249)" opacity="1"/>
<rect x="20" y="15" width="2.5" height="2.5" fill="rgb(199,0,55)" opacity="1"/>
<rect x="25" y="15" width="2.5" height="2.5" fill="rgb(114,0,140)" opacity="1"/>
<rect x="30" y="15" width="2.5" height="2.5" fill="rgb(92,0,162)" opacity="1"/>
<rect x="35" y="15" width="2.5" height="2.5" fill="rgb(73,0,181)" opacity="1"/>
<rect x="40" y="15" width="2.5" height="2.5" fill="rgb(41,0,213)" opacity="1"/>
<rect x="45" y="15" width="2.5" height="2.5" fill="rgb(8,0,246)" opacity="1"/>
<rect x="50" y="15" width="2.5" height="2.5" fill="rgb(9,0,245)" opacity="1"/>
<rect x="25" y="20" width="2.5" height="2.5" fill="rgb(177,0,77)" opacity="1"/>
<rect x="30" y="20" width="2.5" height="2.5" fill="rgb(124,0,130)" opacity="1"/>
<rect x="35" y="20" width="2.5" height="2.5" fill="rgb(100,0,154)" opacity="1"/>
<rect x="40" y="20" width="2.5" height="2.5" fill="rgb(59,0,195)" opacity="1"/>
<rect x="45" y="20" width="2.5" height="2.5" fill="rgb(9,0,245)" opacity="1"/>
<rect x="50" y="20" width="2.5" height="2.5" fill="rgb(10,0,244)" opacity="1"/>
<rect x="30" y="25" width="2.5" height="2.5" fill="rgb(149,0,105)" opacity="1"/>
<rect x="35" y="25" width="2.5" height="2.5" fill="rgb(119,0,135)" opacity="1"/>
<rect x="40" y="25" width="2.5" height="2.5" fill="rgb(72,0,182)" opacity="1"/>
<rect x="45" y="25" width="2.5" height="2.5" fill="rgb(13,0,241)" opacity="1"/>
<rect x="50" y="25" width="2.5" height="2.5" fill="rgb(10,0,244)" opacity="1"/>
<rect x="35" y="30" width="2.5" height="2.5" fill="rgb(171,0,83)" opacity="1"/>
<rect x="40" y="30" width="2.5" height="2.5" fill="rgb(97,0,157)" opacity="1"/>
<rect x="45" y="30" width="2.5" height="2.5" fill="rgb(20,0,234)" opacity="1"/>
<rect x="50" y="30" width="2.5" height="2.5" fill="rgb(14,0,240)" opacity="1"/>
<rect x="40" y="35" width="2.5" height="2.5" fill="rgb(172,0,82)" opacity="1"/>
<rect x="45" y="35" width="2.5" height="2.5" fill="rgb(30,0,224)" opacity="1"/>
<rect x="50" y="35" width="2.5" height="2.5" fill="rgb(30,0,224)" opacity="1"/>
<rect x="45" y="40" width="2.5" height="2.5" fill="rgb(59,0,195)" opacity="1"/>
<rect x="50" y="40" width="2.5" height="2.5" fill="rgb(49,0,205)" opacity="1"/>
<rect x="50" y="45" width="2.5" height="2.5" fill="rgb(27,0,227)" opacity="1"/>
<text x="60" y="5" font-size="5" fill="black">0</text>
<text x="60" y="50" font-size="5" fill="black">11</text>
<polyline points="60,10,60,45" stroke="black" stroke-width="1" fill="none" opacity="1"/>
<text x="5" y="60" font-size="5" fill="black">0</text>
<text x="50" y="60" font-size="5" fill="black">11</text>
<polyline points="10,60,45,60" stroke="black" stroke-width="1" fill="none" opacity="1"/>
</svg>