<?xml version="1.0" standalone="yes"?>
<!-- SVG graphic -->
<svg xmlns='http://www.w3.org/2000/svg' xmlns:xlink='http://www.w3.org/1999/xlink'
width="70px" height="70px" preserveAspectRatio="xMinYMin meet" viewBox="0 0 70 70" version="1.1">
<rect x="5" y="0" width="2.5" height="2.5" fill="rgb(231,0,23)" opacity="1"/>
<rect x="10" y="0" width="2.5" height="2.5" fill="rgb(141,0,113)" opacity="1"/>
<rect x="15" y="0" width="2.5" height="2.5" fill="rgb(105,0,149)" opacity="1"/>
<rect x="20" y="0" width="2.5" height="2.5" fill="rgb(88,0,166)" opacity="1"/>
<rect x="25" y="0" width="2.5" height="2.5" fill="rgb(56,0,198)" opacity="1"/>
<rect x="30" y="0" width="2.5" height="2.5" fill="rgb(45,0,209)" opacity="1"/>
<rect x="35" y="0" width="2.5" height="2.5" fill="rgb(47,0,207)" opacity="1"/>
<rect x="40" y="0" width="2.5" height="2.5" fill="rgb(39,0,215)" opacity="1"/>
<rect x="45" y="0" width="2.5" height="2.5" fill="rgb(15,0,239)" opacity="1"/>
<rect x="50" y="0" width="2.5" height="2.5" fill="rgb(29,0,225)" opacity="1"/>
<rect x="10" y="5" width="2.5" height="2.5" fill="rgb(255,0,0)" opacity="1"/>
<rect x="15" y="5" width="2.5" height="2.5" fill="rgb(182,0,72)" opacity="1"/>
<rect x="20" y="5" width="2.5" height="2.5" fill="rgb(139,0,115)" opacity="1"/>
<rect x="25" y="5" width="2.5" height="2.5" fill="rgb(89,0,165)" opacity="1"/>
<rect x="30" y="5" width="2.5" height="2.5" fill="rgb(73,0,181)" opacity="1"/>
<rect x="35" y="5" width="2.5" height="2.5" fill="rgb(68,0,186)" opacity="1"/>
<rect x="40" y="5" width="2.5" height="2.5" fill="rgb(48,0,206)" opacity="1"/>
<rect x="45" y="5" width="2.5" height="2.5" fill="rgb(15,0,239)" opacity="1"/>
<rect x="50" y="5" width="2.5" height="2.5" fill="rgb(33,0,221)" opacity="1"/>
<rect x="15" y="10" width="2.5" height="2.5" fill="rgb(246,0,8)" opacity="1"/>
<rect x="20" y="10" width="2.5" height="2.5" fill="rgb(181,0,73)" opacity="1"/>
<rect x="25" y="10" width="2.5" height="2.5" fill="rgb(116,0,138)" opacity="1"/>
<rect x="30" y="10" width="2.5" height="2.5" fill="rgb(90,0,164)" opacity="1"/>
<rect x="35" y="10" width="2.5" height="2.5" fill="rgb(82,0,172)" opacity="1"/>
<rect x="40" y="10" width="2.5" height="2.5" fill="rgb(55,0,199)" opacity="1"/>
<rect x="45" y="10" width="2.5" height="2.5" fill="rgb(14,0,240)" opacity="1"/>
<rect x="50" y="10" width="2.5" height="2.5" fill="rgb(31,0,223)" opacity="1"/>
<rect x="20" y="15" width="2.5" height="2.5" fill="rgb(215,0,39)" opacity="1"/>
<rect x="25" y="15" width="2.5" height="2.5" fill="rgb(136,0,118)" opacity="1"/>
<rect x="30" y="15" width="2.5" height="2.5" fill="rgb(113,0,141)" opacity="1"/>
<rect x="35" y="15" width="2.5" height="2.5" fill="rgb(91,0,163)" opacity="1"/>
<rect x="40" y="15" width="2.5" height="2.5" fill="rgb(57,0,197)" opacity="1"/>
<rect x="45" y="15" width="2.5" height="2.5" fill="rgb(17,0,237)" opacity="1"/>
<rect x="50" y="15" width="2.5" height="2.5" fill="rgb(27,0,227)" opacity="1"/>
<rect x="25" y="20" width="2.5" height="2.5" fill="rgb(184,0,70)" opacity="1"/>
<rect x="30" y="20" width="2.5" height="2.5" fill="rgb(135,0,119)" opacity="1"/>
<rect x="35" y="20" width="2.5" height="2.5" fill="rgb(117,0,137)" opacity="1"/>
<rect x="40" y="20" width="2.5" height="2.5" fill="rgb(71,0,183)" opacity="1"/>
<rect x="45" y="20" width="2.5" height="2.5" fill="rgb(18,0,236)" opacity="1"/>
<rect x="50" y="20" width="2.5" height="2.5" fill="rgb(28,0,226)" opacity="1"/>
<rect x="30" y="25" width="2.5" height="2.5" fill="rgb(184,0,70)" opacity="1"/>
<rect x="35" y="25" width="2.5" height="2.5" fill="rgb(134,0,120)" opacity="1"/>
<rect x="40" y="25" width="2.5" height="2.5" fill="rgb(86,0,168)" opacity="1"/>
<rect x="45" y="25" width="2.5" height="2.5" fill="rgb(24,0,230)" opacity="1"/>
<rect x="50" y="25" width="2.5" height="2.5" fill="rgb(29,0,225)" opacity="1"/>
<rect x="35" y="30" width="2.5" height="2.5" fill="rgb(187,0,67)" opacity="1"/>
<rect x="40" y="30" width="2.5" height="2.5" fill="rgb(117,0,137)" opacity="1"/>
<rect x="45" y="30" width="2.5" height="2.5" fill="rgb(31,0,223)" opacity="1"/>
<rect x="50" y="30" width="2.5" height="2.5" fill="rgb(35,0,219)" opacity="1"/>
<rect x="40" y="35" width="2.5" height="2.5" fill="rgb(180,0,74)" opacity="1"/>
<rect x="45" y="35" width="2.5" height="2.5" fill="rgb(41,0,213)" opacity="1"/>
<rect x="50" y="35" width="2.5" height="2.5" fill="rgb(58,0,196)" opacity="1"/>
<rect x="45" y="40" width="2.5" height="2.5" fill="rgb(69,0,185)" opacity="1"/>
<rect x="50" y="40" width="2.5" height="2.5" fill="rgb(85,0,169)" opacity="1"/>
<rect x="50" y="45" width="2.5" height="2.5" fill="rgb(60,0,194)" opacity="1"/>
<text x="60" y="5" font-size="5" fill="black">0</text>
<text x="60" y="50" font-size="5" fill="black">11</text>
<polyline points="60,10,60,45" stroke="black" stroke-width="1" fill="none" opacity="1"/>
<text x="5" y="60" font-size="5" fill="black">0</text>
<text x="50" y="60" font-size="5" fill="black">11</text>
<polyline points="10,60,45,60" stroke="black" stroke-width="1" fill="none" opacity="1"/>
</svg>