<?xml version="1.0" standalone="yes"?>
<!-- SVG graphic -->
<svg xmlns='http://www.w3.org/2000/svg' xmlns:xlink='http://www.w3.org/1999/xlink'
 version="1.1">
<rect x="0" y="7.72998e-06" width="6" height="200" stroke="black" stroke-width="1" fill="blue" opacity="1" tooltip="enable"><title>(0,4635)</title></rect><rect x="6" y="10.0971" width="6" height="189.903" stroke="black" stroke-width="1" fill="blue" opacity="1" tooltip="enable"><title>(0.0445651,4401)</title></rect><rect x="12" y="36.8932" width="6" height="163.107" stroke="black" stroke-width="1" fill="blue" opacity="1" tooltip="enable"><title>(0.0891303,3780)</title></rect><rect x="18" y="57.3463" width="6" height="142.654" stroke="black" stroke-width="1" fill="blue" opacity="1" tooltip="enable"><title>(0.133695,3306)</title></rect><rect x="24" y="78.6624" width="6" height="121.338" stroke="black" stroke-width="1" fill="blue" opacity="1" tooltip="enable"><title>(0.178261,2812)</title></rect><rect x="30" y="102.999" width="6" height="97.0011" stroke="black" stroke-width="1" fill="blue" opacity="1" tooltip="enable"><title>(0.222826,2248)</title></rect><rect x="36" y="115.858" width="6" height="84.1424" stroke="black" stroke-width="1" fill="blue" opacity="1" tooltip="enable"><title>(0.267391,1950)</title></rect><rect x="42" y="131.607" width="6" height="68.3927" stroke="black" stroke-width="1" fill="blue" opacity="1" tooltip="enable"><title>(0.311956,1585)</title></rect><rect x="48" y="144.121" width="6" height="55.8792" stroke="black" stroke-width="1" fill="blue" opacity="1" tooltip="enable"><title>(0.356521,1295)</title></rect><rect x="54" y="150.766" width="6" height="49.2341" stroke="black" stroke-width="1" fill="blue" opacity="1" tooltip="enable"><title>(0.401086,1141)</title></rect><rect x="60" y="159.051" width="6" height="40.9493" stroke="black" stroke-width="1" fill="blue" opacity="1" tooltip="enable"><title>(0.445651,949)</title></rect><rect x="66" y="166.904" width="6" height="33.096" stroke="black" stroke-width="1" fill="blue" opacity="1" tooltip="enable"><title>(0.490217,767)</title></rect><rect x="72" y="171.737" width="6" height="28.2632" stroke="black" stroke-width="1" fill="blue" opacity="1" tooltip="enable"><title>(0.534782,655)</title></rect><rect x="78" y="176.742" width="6" height="23.2578" stroke="black" stroke-width="1" fill="blue" opacity="1" tooltip="enable"><title>(0.579347,539)</title></rect><rect x="84" y="180.885" width="6" height="19.1154" stroke="black" stroke-width="1" fill="blue" opacity="1" tooltip="enable"><title>(0.623912,443)</title></rect><rect x="90" y="182.093" width="6" height="17.9072" stroke="black" stroke-width="1" fill="blue" opacity="1" tooltip="enable"><title>(0.668477,415)</title></rect><rect x="96" y="185.502" width="6" height="14.4984" stroke="black" stroke-width="1" fill="blue" opacity="1" tooltip="enable"><title>(0.713042,336)</title></rect><rect x="102" y="187.098" width="6" height="12.9018" stroke="black" stroke-width="1" fill="blue" opacity="1" tooltip="enable"><title>(0.757607,299)</title></rect><rect x="108" y="188.436" width="6" height="11.5642" stroke="black" stroke-width="1" fill="blue" opacity="1" tooltip="enable"><title>(0.802173,268)</title></rect><rect x="114" y="188.781" width="6" height="11.219" stroke="black" stroke-width="1" fill="blue" opacity="1" tooltip="enable"><title>(0.846738,260)</title></rect><rect x="120" y="191.327" width="6" height="8.67314" stroke="black" stroke-width="1" fill="blue" opacity="1" tooltip="enable"><title>(0.891303,201)</title></rect><rect x="126" y="192.665" width="6" height="7.33549" stroke="black" stroke-width="1" fill="blue" opacity="1" tooltip="enable"><title>(0.935868,170)</title></rect><rect x="132" y="192.621" width="6" height="7.37864" stroke="black" stroke-width="1" fill="blue" opacity="1" tooltip="enable"><title>(0.980433,171)</title></rect><rect x="138" y="194.218" width="6" height="5.78209" stroke="black" stroke-width="1" fill="blue" opacity="1" tooltip="enable"><title>(1.025,134)</title></rect><rect x="144" y="194.563" width="6" height="5.43689" stroke="black" stroke-width="1" fill="blue" opacity="1" tooltip="enable"><title>(1.06956,126)</title></rect><rect x="150" y="195.038" width="6" height="4.96224" stroke="black" stroke-width="1" fill="blue" opacity="1" tooltip="enable"><title>(1.11413,115)</title></rect><rect x="156" y="194.606" width="6" height="5.39374" stroke="black" stroke-width="1" fill="blue" opacity="1" tooltip="enable"><title>(1.15869,125)</title></rect><rect x="162" y="195.512" width="6" height="4.48759" stroke="black" stroke-width="1" fill="blue" opacity="1" tooltip="enable"><title>(1.20326,104)</title></rect><rect x="168" y="196.073" width="6" height="3.92665" stroke="black" stroke-width="1" fill="blue" opacity="1" tooltip="enable"><title>(1.24782,91)</title></rect><rect x="174" y="196.246" width="6" height="3.75405" stroke="black" stroke-width="1" fill="blue" opacity="1" tooltip="enable"><title>(1.29239,87)</title></rect><rect x="180" y="197.109" width="6" height="2.89105" stroke="black" stroke-width="1" fill="blue" opacity="1" tooltip="enable"><title>(1.33695,67)</title></rect><rect x="186" y="197.67" width="6" height="2.3301" stroke="black" stroke-width="1" fill="blue" opacity="1" tooltip="enable"><title>(1.38152,54)</title></rect><rect x="192" y="197.195" width="6" height="2.80475" stroke="black" stroke-width="1" fill="blue" opacity="1" tooltip="enable"><title>(1.42608,65)</title></rect><rect x="198" y="197.411" width="6" height="2.589" stroke="black" stroke-width="1" fill="blue" opacity="1" tooltip="enable"><title>(1.47065,60)</title></rect><rect x="204" y="198.188" width="6" height="1.8123" stroke="black" stroke-width="1" fill="blue" opacity="1" tooltip="enable"><title>(1.51521,42)</title></rect><rect x="210" y="198.101" width="6" height="1.8986" stroke="black" stroke-width="1" fill="blue" opacity="1" tooltip="enable"><title>(1.55978,44)</title></rect><rect x="216" y="198.36" width="6" height="1.6397" stroke="black" stroke-width="1" fill="blue" opacity="1" tooltip="enable"><title>(1.60435,38)</title></rect><rect x="222" y="198.015" width="6" height="1.9849" stroke="black" stroke-width="1" fill="blue" opacity="1" tooltip="enable"><title>(1.64891,46)</title></rect><rect x="228" y="198.188" width="6" height="1.8123" stroke="black" stroke-width="1" fill="blue" opacity="1" tooltip="enable"><title>(1.69348,42)</title></rect><rect x="234" y="198.403" width="6" height="1.59655" stroke="black" stroke-width="1" fill="blue" opacity="1" tooltip="enable"><title>(1.73804,37)</title></rect><rect x="240" y="198.706" width="6" height="1.2945" stroke="black" stroke-width="1" fill="blue" opacity="1" tooltip="enable"><title>(1.78261,30)</title></rect><rect x="246" y="199.18" width="6" height="0.819849" stroke="black" stroke-width="1" fill="blue" opacity="1" tooltip="enable"><title>(1.82717,19)</title></rect><rect x="252" y="198.921" width="6" height="1.07875" stroke="black" stroke-width="1" fill="blue" opacity="1" tooltip="enable"><title>(1.87174,25)</title></rect><rect x="258" y="198.835" width="6" height="1.16505" stroke="black" stroke-width="1" fill="blue" opacity="1" tooltip="enable"><title>(1.9163,27)</title></rect><rect x="264" y="199.18" width="6" height="0.819849" stroke="black" stroke-width="1" fill="blue" opacity="1" tooltip="enable"><title>(1.96087,19)</title></rect><rect x="270" y="199.094" width="6" height="0.906149" stroke="black" stroke-width="1" fill="blue" opacity="1" tooltip="enable"><title>(2.00543,21)</title></rect><rect x="276" y="199.051" width="6" height="0.949299" stroke="black" stroke-width="1" fill="blue" opacity="1" tooltip="enable"><title>(2.05,22)</title></rect><rect x="282" y="199.525" width="6" height="0.474649" stroke="black" stroke-width="1" fill="blue" opacity="1" tooltip="enable"><title>(2.09456,11)</title></rect><rect x="288" y="199.396" width="6" height="0.604099" stroke="black" stroke-width="1" fill="blue" opacity="1" tooltip="enable"><title>(2.13913,14)</title></rect><rect x="294" y="199.18" width="6" height="0.819849" stroke="black" stroke-width="1" fill="blue" opacity="1" tooltip="enable"><title>(2.18369,19)</title></rect><rect x="300" y="199.482" width="6" height="0.517799" stroke="black" stroke-width="1" fill="blue" opacity="1" tooltip="enable"><title>(2.22826,12)</title></rect><rect x="306" y="199.396" width="6" height="0.604099" stroke="black" stroke-width="1" fill="blue" opacity="1" tooltip="enable"><title>(2.27282,14)</title></rect><rect x="312" y="199.223" width="6" height="0.776699" stroke="black" stroke-width="1" fill="blue" opacity="1" tooltip="enable"><title>(2.31739,18)</title></rect><rect x="318" y="199.396" width="6" height="0.604099" stroke="black" stroke-width="1" fill="blue" opacity="1" tooltip="enable"><title>(2.36195,14)</title></rect><rect x="324" y="199.439" width="6" height="0.560949" stroke="black" stroke-width="1" fill="blue" opacity="1" tooltip="enable"><title>(2.40652,13)</title></rect><rect x="330" y="199.525" width="6" height="0.474649" stroke="black" stroke-width="1" fill="blue" opacity="1" tooltip="enable"><title>(2.45108,11)</title></rect><rect x="336" y="199.784" width="6" height="0.21575" stroke="black" stroke-width="1" fill="blue" opacity="1" tooltip="enable"><title>(2.49565,5)</title></rect><rect x="342" y="199.482" width="6" height="0.517799" stroke="black" stroke-width="1" fill="blue" opacity="1" tooltip="enable"><title>(2.54021,12)</title></rect><rect x="348" y="199.698" width="6" height="0.30205" stroke="black" stroke-width="1" fill="blue" opacity="1" tooltip="enable"><title>(2.58478,7)</title></rect><rect x="354" y="199.612" width="6" height="0.38835" stroke="black" stroke-width="1" fill="blue" opacity="1" tooltip="enable"><title>(2.62934,9)</title></rect><rect x="360" y="199.482" width="6" height="0.517799" stroke="black" stroke-width="1" fill="blue" opacity="1" tooltip="enable"><title>(2.67391,12)</title></rect><rect x="366" y="199.784" width="6" height="0.21575" stroke="black" stroke-width="1" fill="blue" opacity="1" tooltip="enable"><title>(2.71847,5)</title></rect><rect x="372" y="199.784" width="6" height="0.21575" stroke="black" stroke-width="1" fill="blue" opacity="1" tooltip="enable"><title>(2.76304,5)</title></rect><rect x="378" y="199.741" width="6" height="0.2589" stroke="black" stroke-width="1" fill="blue" opacity="1" tooltip="enable"><title>(2.8076,6)</title></rect><rect x="384" y="199.784" width="6" height="0.21575" stroke="black" stroke-width="1" fill="blue" opacity="1" tooltip="enable"><title>(2.85217,5)</title></rect><rect x="390" y="199.827" width="6" height="0.1726" stroke="black" stroke-width="1" fill="blue" opacity="1" tooltip="enable"><title>(2.89673,4)</title></rect><rect x="396" y="199.827" width="6" height="0.1726" stroke="black" stroke-width="1" fill="blue" opacity="1" tooltip="enable"><title>(2.9413,4)</title></rect><rect x="402" y="199.612" width="6" height="0.38835" stroke="black" stroke-width="1" fill="blue" opacity="1" tooltip="enable"><title>(2.98586,9)</title></rect><rect x="408" y="199.827" width="6" height="0.1726" stroke="black" stroke-width="1" fill="blue" opacity="1" tooltip="enable"><title>(3.03043,4)</title></rect><rect x="414" y="199.698" width="6" height="0.30205" stroke="black" stroke-width="1" fill="blue" opacity="1" tooltip="enable"><title>(3.07499,7)</title></rect><rect x="420" y="199.655" width="6" height="0.3452" stroke="black" stroke-width="1" fill="blue" opacity="1" tooltip="enable"><title>(3.11956,8)</title></rect><rect x="426" y="199.871" width="6" height="0.12945" stroke="black" stroke-width="1" fill="blue" opacity="1" tooltip="enable"><title>(3.16412,3)</title></rect><rect x="432" y="199.871" width="6" height="0.12945" stroke="black" stroke-width="1" fill="blue" opacity="1" tooltip="enable"><title>(3.20869,3)</title></rect><rect x="438" y="199.871" width="6" height="0.12945" stroke="black" stroke-width="1" fill="blue" opacity="1" tooltip="enable"><title>(3.25326,3)</title></rect><rect x="444" y="199.784" width="6" height="0.21575" stroke="black" stroke-width="1" fill="blue" opacity="1" tooltip="enable"><title>(3.29782,5)</title></rect><rect x="450" y="200" width="6" height="0" stroke="black" stroke-width="1" fill="blue" opacity="1" tooltip="enable"><title>(3.34239,0)</title></rect><rect x="456" y="199.827" width="6" height="0.1726" stroke="black" stroke-width="1" fill="blue" opacity="1" tooltip="enable"><title>(3.38695,4)</title></rect><rect x="462" y="199.957" width="6" height="0.0431499" stroke="black" stroke-width="1" fill="blue" opacity="1" tooltip="enable"><title>(3.43152,1)</title></rect><rect x="468" y="199.914" width="6" height="0.0862999" stroke="black" stroke-width="1" fill="blue" opacity="1" tooltip="enable"><title>(3.47608,2)</title></rect><rect x="474" y="199.827" width="6" height="0.1726" stroke="black" stroke-width="1" fill="blue" opacity="1" tooltip="enable"><title>(3.52065,4)</title></rect><rect x="480" y="199.871" width="6" height="0.12945" stroke="black" stroke-width="1" fill="blue" opacity="1" tooltip="enable"><title>(3.56521,3)</title></rect><rect x="486" y="200" width="6" height="0" stroke="black" stroke-width="1" fill="blue" opacity="1" tooltip="enable"><title>(3.60978,0)</title></rect><rect x="492" y="199.871" width="6" height="0.12945" stroke="black" stroke-width="1" fill="blue" opacity="1" tooltip="enable"><title>(3.65434,3)</title></rect><rect x="498" y="199.914" width="6" height="0.0862999" stroke="black" stroke-width="1" fill="blue" opacity="1" tooltip="enable"><title>(3.69891,2)</title></rect><rect x="504" y="199.957" width="6" height="0.0431499" stroke="black" stroke-width="1" fill="blue" opacity="1" tooltip="enable"><title>(3.74347,1)</title></rect><rect x="510" y="199.957" width="6" height="0.0431499" stroke="black" stroke-width="1" fill="blue" opacity="1" tooltip="enable"><title>(3.78804,1)</title></rect><rect x="516" y="200" width="6" height="0" stroke="black" stroke-width="1" fill="blue" opacity="1" tooltip="enable"><title>(3.8326,0)</title></rect><rect x="522" y="199.957" width="6" height="0.0431499" stroke="black" stroke-width="1" fill="blue" opacity="1" tooltip="enable"><title>(3.87717,1)</title></rect><rect x="528" y="200" width="6" height="0" stroke="black" stroke-width="1" fill="blue" opacity="1" tooltip="enable"><title>(3.92173,0)</title></rect><rect x="534" y="199.957" width="6" height="0.0431499" stroke="black" stroke-width="1" fill="blue" opacity="1" tooltip="enable"><title>(3.9663,1)</title></rect><rect x="540" y="200" width="6" height="0" stroke="black" stroke-width="1" fill="blue" opacity="1" tooltip="enable"><title>(4.01086,0)</title></rect><rect x="546" y="199.957" width="6" height="0.0431499" stroke="black" stroke-width="1" fill="blue" opacity="1" tooltip="enable"><title>(4.05543,1)</title></rect><rect x="552" y="200" width="6" height="0" stroke="black" stroke-width="1" fill="blue" opacity="1" tooltip="enable"><title>(4.09999,0)</title></rect><rect x="558" y="200" width="6" height="0" stroke="black" stroke-width="1" fill="blue" opacity="1" tooltip="enable"><title>(4.14456,0)</title></rect><rect x="564" y="200" width="6" height="0" stroke="black" stroke-width="1" fill="blue" opacity="1" tooltip="enable"><title>(4.18912,0)</title></rect><rect x="570" y="199.957" width="6" height="0.0431499" stroke="black" stroke-width="1" fill="blue" opacity="1" tooltip="enable"><title>(4.23369,1)</title></rect><rect x="576" y="200" width="6" height="0" stroke="black" stroke-width="1" fill="blue" opacity="1" tooltip="enable"><title>(4.27825,0)</title></rect><rect x="582" y="200" width="6" height="0" stroke="black" stroke-width="1" fill="blue" opacity="1" tooltip="enable"><title>(4.32282,0)</title></rect><rect x="588" y="200" width="6" height="0" stroke="black" stroke-width="1" fill="blue" opacity="1" tooltip="enable"><title>(4.36738,0)</title></rect><rect x="594" y="200" width="6" height="0" stroke="black" stroke-width="1" fill="blue" opacity="1" tooltip="enable"><title>(4.41195,0)</title></rect><text x="30" y="240" font-size="20" fill="black">0</text>
<text x="600" y="240" font-size="20" fill="black">4.45651</text>
<polyline points="0,220,600,220" stroke="black" stroke-width="1" fill="none" opacity="1"/>
<text x="720" y="20" font-size="20" fill="black">4635</text>
<text x="720" y="200" font-size="20" fill="black">0</text>
<polyline points="660,0,660,200" stroke="black" stroke-width="1" fill="none" opacity="1"/>
</svg>