<?xml version="1.0" standalone="yes"?>
<!-- SVG graphic -->
<svg xmlns='http://www.w3.org/2000/svg' xmlns:xlink='http://www.w3.org/1999/xlink'
 version="1.1">
<rect x="0" y="-3.09944e-06" width="6" height="200" stroke="black" stroke-width="1" fill="blue" opacity="1" tooltip="enable"><title>(0,10019)</title></rect><rect x="6" y="97.8141" width="6" height="102.186" stroke="black" stroke-width="1" fill="blue" opacity="1" tooltip="enable"><title>(0.0398111,5119)</title></rect><rect x="12" y="116.419" width="6" height="83.5812" stroke="black" stroke-width="1" fill="blue" opacity="1" tooltip="enable"><title>(0.0796223,4187)</title></rect><rect x="18" y="127.518" width="6" height="72.4823" stroke="black" stroke-width="1" fill="blue" opacity="1" tooltip="enable"><title>(0.119433,3631)</title></rect><rect x="24" y="140.673" width="6" height="59.3273" stroke="black" stroke-width="1" fill="blue" opacity="1" tooltip="enable"><title>(0.159245,2972)</title></rect><rect x="30" y="149.057" width="6" height="50.9432" stroke="black" stroke-width="1" fill="blue" opacity="1" tooltip="enable"><title>(0.199056,2552)</title></rect><rect x="36" y="155.205" width="6" height="44.7949" stroke="black" stroke-width="1" fill="blue" opacity="1" tooltip="enable"><title>(0.238867,2244)</title></rect><rect x="42" y="162.272" width="6" height="37.7283" stroke="black" stroke-width="1" fill="blue" opacity="1" tooltip="enable"><title>(0.278678,1890)</title></rect><rect x="48" y="170.157" width="6" height="29.8433" stroke="black" stroke-width="1" fill="blue" opacity="1" tooltip="enable"><title>(0.318489,1495)</title></rect><rect x="54" y="174.888" width="6" height="25.1123" stroke="black" stroke-width="1" fill="blue" opacity="1" tooltip="enable"><title>(0.3583,1258)</title></rect><rect x="60" y="178.521" width="6" height="21.4792" stroke="black" stroke-width="1" fill="blue" opacity="1" tooltip="enable"><title>(0.398111,1076)</title></rect><rect x="66" y="180.737" width="6" height="19.2634" stroke="black" stroke-width="1" fill="blue" opacity="1" tooltip="enable"><title>(0.437922,965)</title></rect><rect x="72" y="183.691" width="6" height="16.309" stroke="black" stroke-width="1" fill="blue" opacity="1" tooltip="enable"><title>(0.477734,817)</title></rect><rect x="78" y="186.007" width="6" height="13.9934" stroke="black" stroke-width="1" fill="blue" opacity="1" tooltip="enable"><title>(0.517545,701)</title></rect><rect x="84" y="188.043" width="6" height="11.9573" stroke="black" stroke-width="1" fill="blue" opacity="1" tooltip="enable"><title>(0.557356,599)</title></rect><rect x="90" y="189.959" width="6" height="10.0409" stroke="black" stroke-width="1" fill="blue" opacity="1" tooltip="enable"><title>(0.597167,503)</title></rect><rect x="96" y="191.177" width="6" height="8.82324" stroke="black" stroke-width="1" fill="blue" opacity="1" tooltip="enable"><title>(0.636978,442)</title></rect><rect x="102" y="192.774" width="6" height="7.22627" stroke="black" stroke-width="1" fill="blue" opacity="1" tooltip="enable"><title>(0.676789,362)</title></rect><rect x="108" y="192.913" width="6" height="7.08654" stroke="black" stroke-width="1" fill="blue" opacity="1" tooltip="enable"><title>(0.7166,355)</title></rect><rect x="114" y="194.49" width="6" height="5.50953" stroke="black" stroke-width="1" fill="blue" opacity="1" tooltip="enable"><title>(0.756411,276)</title></rect><rect x="120" y="195.409" width="6" height="4.59128" stroke="black" stroke-width="1" fill="blue" opacity="1" tooltip="enable"><title>(0.796223,230)</title></rect><rect x="126" y="194.93" width="6" height="5.07037" stroke="black" stroke-width="1" fill="blue" opacity="1" tooltip="enable"><title>(0.836034,254)</title></rect><rect x="132" y="195.708" width="6" height="4.29185" stroke="black" stroke-width="1" fill="blue" opacity="1" tooltip="enable"><title>(0.875845,215)</title></rect><rect x="138" y="196.067" width="6" height="3.93253" stroke="black" stroke-width="1" fill="blue" opacity="1" tooltip="enable"><title>(0.915656,197)</title></rect><rect x="144" y="196.247" width="6" height="3.75287" stroke="black" stroke-width="1" fill="blue" opacity="1" tooltip="enable"><title>(0.955467,188)</title></rect><rect x="150" y="196.367" width="6" height="3.6331" stroke="black" stroke-width="1" fill="blue" opacity="1" tooltip="enable"><title>(0.995278,182)</title></rect><rect x="156" y="197.625" width="6" height="2.37549" stroke="black" stroke-width="1" fill="blue" opacity="1" tooltip="enable"><title>(1.03509,119)</title></rect><rect x="162" y="197.625" width="6" height="2.37549" stroke="black" stroke-width="1" fill="blue" opacity="1" tooltip="enable"><title>(1.0749,119)</title></rect><rect x="168" y="197.664" width="6" height="2.33556" stroke="black" stroke-width="1" fill="blue" opacity="1" tooltip="enable"><title>(1.11471,117)</title></rect><rect x="174" y="197.904" width="6" height="2.09602" stroke="black" stroke-width="1" fill="blue" opacity="1" tooltip="enable"><title>(1.15452,105)</title></rect><rect x="180" y="198.024" width="6" height="1.97625" stroke="black" stroke-width="1" fill="blue" opacity="1" tooltip="enable"><title>(1.19433,99)</title></rect><rect x="186" y="198.163" width="6" height="1.83651" stroke="black" stroke-width="1" fill="blue" opacity="1" tooltip="enable"><title>(1.23415,92)</title></rect><rect x="192" y="198.503" width="6" height="1.49716" stroke="black" stroke-width="1" fill="blue" opacity="1" tooltip="enable"><title>(1.27396,75)</title></rect><rect x="198" y="198.722" width="6" height="1.27757" stroke="black" stroke-width="1" fill="blue" opacity="1" tooltip="enable"><title>(1.31377,64)</title></rect><rect x="204" y="198.922" width="6" height="1.07795" stroke="black" stroke-width="1" fill="blue" opacity="1" tooltip="enable"><title>(1.35358,54)</title></rect><rect x="210" y="198.603" width="6" height="1.39735" stroke="black" stroke-width="1" fill="blue" opacity="1" tooltip="enable"><title>(1.39339,70)</title></rect><rect x="216" y="199.082" width="6" height="0.918255" stroke="black" stroke-width="1" fill="blue" opacity="1" tooltip="enable"><title>(1.4332,46)</title></rect><rect x="222" y="199.122" width="6" height="0.878331" stroke="black" stroke-width="1" fill="blue" opacity="1" tooltip="enable"><title>(1.47301,44)</title></rect><rect x="228" y="199.162" width="6" height="0.838407" stroke="black" stroke-width="1" fill="blue" opacity="1" tooltip="enable"><title>(1.51282,42)</title></rect><rect x="234" y="199.122" width="6" height="0.878331" stroke="black" stroke-width="1" fill="blue" opacity="1" tooltip="enable"><title>(1.55263,44)</title></rect><rect x="240" y="199.202" width="6" height="0.798483" stroke="black" stroke-width="1" fill="blue" opacity="1" tooltip="enable"><title>(1.59245,40)</title></rect><rect x="246" y="199.162" width="6" height="0.838407" stroke="black" stroke-width="1" fill="blue" opacity="1" tooltip="enable"><title>(1.63226,42)</title></rect><rect x="252" y="199.122" width="6" height="0.878331" stroke="black" stroke-width="1" fill="blue" opacity="1" tooltip="enable"><title>(1.67207,44)</title></rect><rect x="258" y="199.042" width="6" height="0.958179" stroke="black" stroke-width="1" fill="blue" opacity="1" tooltip="enable"><title>(1.71188,48)</title></rect><rect x="264" y="199.461" width="6" height="0.538976" stroke="black" stroke-width="1" fill="blue" opacity="1" tooltip="enable"><title>(1.75169,27)</title></rect><rect x="270" y="199.341" width="6" height="0.658748" stroke="black" stroke-width="1" fill="blue" opacity="1" tooltip="enable"><title>(1.7915,33)</title></rect><rect x="276" y="199.301" width="6" height="0.698673" stroke="black" stroke-width="1" fill="blue" opacity="1" tooltip="enable"><title>(1.83131,35)</title></rect><rect x="282" y="199.581" width="6" height="0.419204" stroke="black" stroke-width="1" fill="blue" opacity="1" tooltip="enable"><title>(1.87112,21)</title></rect><rect x="288" y="199.681" width="6" height="0.319393" stroke="black" stroke-width="1" fill="blue" opacity="1" tooltip="enable"><title>(1.91093,16)</title></rect><rect x="294" y="199.561" width="6" height="0.439166" stroke="black" stroke-width="1" fill="blue" opacity="1" tooltip="enable"><title>(1.95075,22)</title></rect><rect x="300" y="199.621" width="6" height="0.379279" stroke="black" stroke-width="1" fill="blue" opacity="1" tooltip="enable"><title>(1.99056,19)</title></rect><rect x="306" y="199.641" width="6" height="0.359317" stroke="black" stroke-width="1" fill="blue" opacity="1" tooltip="enable"><title>(2.03037,18)</title></rect><rect x="312" y="199.721" width="6" height="0.279469" stroke="black" stroke-width="1" fill="blue" opacity="1" tooltip="enable"><title>(2.07018,14)</title></rect><rect x="318" y="199.76" width="6" height="0.239545" stroke="black" stroke-width="1" fill="blue" opacity="1" tooltip="enable"><title>(2.10999,12)</title></rect><rect x="324" y="199.84" width="6" height="0.159697" stroke="black" stroke-width="1" fill="blue" opacity="1" tooltip="enable"><title>(2.1498,8)</title></rect><rect x="330" y="199.74" width="6" height="0.259507" stroke="black" stroke-width="1" fill="blue" opacity="1" tooltip="enable"><title>(2.18961,13)</title></rect><rect x="336" y="199.701" width="6" height="0.299431" stroke="black" stroke-width="1" fill="blue" opacity="1" tooltip="enable"><title>(2.22942,15)</title></rect><rect x="342" y="199.76" width="6" height="0.239545" stroke="black" stroke-width="1" fill="blue" opacity="1" tooltip="enable"><title>(2.26923,12)</title></rect><rect x="348" y="199.76" width="6" height="0.239545" stroke="black" stroke-width="1" fill="blue" opacity="1" tooltip="enable"><title>(2.30905,12)</title></rect><rect x="354" y="199.78" width="6" height="0.219583" stroke="black" stroke-width="1" fill="blue" opacity="1" tooltip="enable"><title>(2.34886,11)</title></rect><rect x="360" y="199.84" width="6" height="0.159697" stroke="black" stroke-width="1" fill="blue" opacity="1" tooltip="enable"><title>(2.38867,8)</title></rect><rect x="366" y="199.74" width="6" height="0.259507" stroke="black" stroke-width="1" fill="blue" opacity="1" tooltip="enable"><title>(2.42848,13)</title></rect><rect x="372" y="199.82" width="6" height="0.179659" stroke="black" stroke-width="1" fill="blue" opacity="1" tooltip="enable"><title>(2.46829,9)</title></rect><rect x="378" y="199.721" width="6" height="0.279469" stroke="black" stroke-width="1" fill="blue" opacity="1" tooltip="enable"><title>(2.5081,14)</title></rect><rect x="384" y="199.8" width="6" height="0.199621" stroke="black" stroke-width="1" fill="blue" opacity="1" tooltip="enable"><title>(2.54791,10)</title></rect><rect x="390" y="199.84" width="6" height="0.159697" stroke="black" stroke-width="1" fill="blue" opacity="1" tooltip="enable"><title>(2.58772,8)</title></rect><rect x="396" y="199.82" width="6" height="0.179659" stroke="black" stroke-width="1" fill="blue" opacity="1" tooltip="enable"><title>(2.62753,9)</title></rect><rect x="402" y="199.92" width="6" height="0.0798483" stroke="black" stroke-width="1" fill="blue" opacity="1" tooltip="enable"><title>(2.66735,4)</title></rect><rect x="408" y="199.84" width="6" height="0.159697" stroke="black" stroke-width="1" fill="blue" opacity="1" tooltip="enable"><title>(2.70716,8)</title></rect><rect x="414" y="199.86" width="6" height="0.139735" stroke="black" stroke-width="1" fill="blue" opacity="1" tooltip="enable"><title>(2.74697,7)</title></rect><rect x="420" y="199.9" width="6" height="0.0998104" stroke="black" stroke-width="1" fill="blue" opacity="1" tooltip="enable"><title>(2.78678,5)</title></rect><rect x="426" y="199.8" width="6" height="0.199621" stroke="black" stroke-width="1" fill="blue" opacity="1" tooltip="enable"><title>(2.82659,10)</title></rect><rect x="432" y="199.84" width="6" height="0.159697" stroke="black" stroke-width="1" fill="blue" opacity="1" tooltip="enable"><title>(2.8664,8)</title></rect><rect x="438" y="199.96" width="6" height="0.0399241" stroke="black" stroke-width="1" fill="blue" opacity="1" tooltip="enable"><title>(2.90621,2)</title></rect><rect x="444" y="199.92" width="6" height="0.0798483" stroke="black" stroke-width="1" fill="blue" opacity="1" tooltip="enable"><title>(2.94602,4)</title></rect><rect x="450" y="199.92" width="6" height="0.0798483" stroke="black" stroke-width="1" fill="blue" opacity="1" tooltip="enable"><title>(2.98583,4)</title></rect><rect x="456" y="199.92" width="6" height="0.0798483" stroke="black" stroke-width="1" fill="blue" opacity="1" tooltip="enable"><title>(3.02565,4)</title></rect><rect x="462" y="199.92" width="6" height="0.0798483" stroke="black" stroke-width="1" fill="blue" opacity="1" tooltip="enable"><title>(3.06546,4)</title></rect><rect x="468" y="199.98" width="6" height="0.0199621" stroke="black" stroke-width="1" fill="blue" opacity="1" tooltip="enable"><title>(3.10527,1)</title></rect><rect x="474" y="199.98" width="6" height="0.0199621" stroke="black" stroke-width="1" fill="blue" opacity="1" tooltip="enable"><title>(3.14508,1)</title></rect><rect x="480" y="199.86" width="6" height="0.139735" stroke="black" stroke-width="1" fill="blue" opacity="1" tooltip="enable"><title>(3.18489,7)</title></rect><rect x="486" y="199.78" width="6" height="0.219583" stroke="black" stroke-width="1" fill="blue" opacity="1" tooltip="enable"><title>(3.2247,11)</title></rect><rect x="492" y="200" width="6" height="0" stroke="black" stroke-width="1" fill="blue" opacity="1" tooltip="enable"><title>(3.26451,0)</title></rect><rect x="498" y="199.94" width="6" height="0.0598862" stroke="black" stroke-width="1" fill="blue" opacity="1" tooltip="enable"><title>(3.30432,3)</title></rect><rect x="504" y="199.92" width="6" height="0.0798483" stroke="black" stroke-width="1" fill="blue" opacity="1" tooltip="enable"><title>(3.34413,4)</title></rect><rect x="510" y="199.96" width="6" height="0.0399241" stroke="black" stroke-width="1" fill="blue" opacity="1" tooltip="enable"><title>(3.38395,2)</title></rect><rect x="516" y="200" width="6" height="0" stroke="black" stroke-width="1" fill="blue" opacity="1" tooltip="enable"><title>(3.42376,0)</title></rect><rect x="522" y="199.94" width="6" height="0.0598862" stroke="black" stroke-width="1" fill="blue" opacity="1" tooltip="enable"><title>(3.46357,3)</title></rect><rect x="528" y="199.94" width="6" height="0.0598862" stroke="black" stroke-width="1" fill="blue" opacity="1" tooltip="enable"><title>(3.50338,3)</title></rect><rect x="534" y="199.92" width="6" height="0.0798483" stroke="black" stroke-width="1" fill="blue" opacity="1" tooltip="enable"><title>(3.54319,4)</title></rect><rect x="540" y="199.96" width="6" height="0.0399241" stroke="black" stroke-width="1" fill="blue" opacity="1" tooltip="enable"><title>(3.583,2)</title></rect><rect x="546" y="199.94" width="6" height="0.0598862" stroke="black" stroke-width="1" fill="blue" opacity="1" tooltip="enable"><title>(3.62281,3)</title></rect><rect x="552" y="199.98" width="6" height="0.0199621" stroke="black" stroke-width="1" fill="blue" opacity="1" tooltip="enable"><title>(3.66262,1)</title></rect><rect x="558" y="200" width="6" height="0" stroke="black" stroke-width="1" fill="blue" opacity="1" tooltip="enable"><title>(3.70244,0)</title></rect><rect x="564" y="200" width="6" height="0" stroke="black" stroke-width="1" fill="blue" opacity="1" tooltip="enable"><title>(3.74225,0)</title></rect><rect x="570" y="199.96" width="6" height="0.0399241" stroke="black" stroke-width="1" fill="blue" opacity="1" tooltip="enable"><title>(3.78206,2)</title></rect><rect x="576" y="200" width="6" height="0" stroke="black" stroke-width="1" fill="blue" opacity="1" tooltip="enable"><title>(3.82187,0)</title></rect><rect x="582" y="199.96" width="6" height="0.0399241" stroke="black" stroke-width="1" fill="blue" opacity="1" tooltip="enable"><title>(3.86168,2)</title></rect><rect x="588" y="199.96" width="6" height="0.0399241" stroke="black" stroke-width="1" fill="blue" opacity="1" tooltip="enable"><title>(3.90149,2)</title></rect><rect x="594" y="199.94" width="6" height="0.0598862" stroke="black" stroke-width="1" fill="blue" opacity="1" tooltip="enable"><title>(3.9413,3)</title></rect><text x="30" y="240" font-size="20" fill="black">0</text>
<text x="600" y="240" font-size="20" fill="black">3.98111</text>
<polyline points="0,220,600,220" stroke="black" stroke-width="1" fill="none" opacity="1"/>
<text x="720" y="20" font-size="20" fill="black">10019</text>
<text x="720" y="200" font-size="20" fill="black">0</text>
<polyline points="660,0,660,200" stroke="black" stroke-width="1" fill="none" opacity="1"/>
</svg>